<svg width="42" height="42" viewBox="0 0 42 42" fill="none" xmlns="http://www.w3.org/2000/svg">
<path d="M20.508 38.3912C30.3849 38.3912 38.3918 30.3844 38.3918 20.5074C38.3918 10.6305 30.3849 2.62363 20.508 2.62363C10.631 2.62363 2.62419 10.6305 2.62419 20.5074C2.62419 30.3844 10.631 38.3912 20.508 38.3912Z" fill="url(#paint0_linear_3_122)"/>
<path d="M37.1658 24.3564C39.2916 15.1562 33.5566 5.97471 24.3564 3.84899C15.1562 1.72326 5.97469 7.45826 3.84897 16.6585C1.72324 25.8587 7.45824 35.0401 16.6584 37.1659C25.8586 39.2916 35.0401 33.5566 37.1658 24.3564Z" fill="url(#paint1_linear_3_122)"/>
<path d="M33.3646 25.7587C36.2651 18.6584 32.8605 10.5511 25.7601 7.65063C18.6598 4.75015 10.5526 8.1548 7.65208 15.2551C4.7516 22.3554 8.15625 30.4627 15.2566 33.3632C22.3569 36.2637 30.4641 32.859 33.3646 25.7587Z" fill="url(#paint2_linear_3_122)"/>
<path d="M32.8222 23.3695C34.4021 16.5695 30.1703 9.77616 23.3703 8.19624C16.5702 6.61632 9.77693 10.8481 8.19701 17.6481C6.6171 24.4482 10.8488 31.2415 17.6489 32.8214C24.4489 34.4013 31.2422 30.1696 32.8222 23.3695Z" fill="url(#paint3_linear_3_122)"/>
<path d="M8.06232 23.1114C8.06232 23.1114 10.1738 33.0665 20.4194 33.0665C30.6651 33.0665 32.9218 23.1114 32.9218 23.1114C32.9218 23.1114 30.2293 32.7051 20.4194 32.489C10.6096 32.2729 8.06232 23.1114 8.06232 23.1114Z" fill="white"/>
<path opacity="0.2" d="M32.4223 22.2044C32.5392 21.5313 32.6029 20.8369 32.6029 20.1283C32.6029 13.4857 27.218 8.10071 20.5753 8.10071C13.9327 8.10071 8.54413 13.4857 8.54413 20.1283C8.54413 20.9255 8.62207 21.7049 8.77086 22.4559C21.1067 23.9793 29.046 22.8988 32.4223 22.2044Z" fill="white"/>
<path opacity="0.2" d="M6.25905 21.9316C6.20945 21.4285 6.10317 20.6775 6.11025 20.1638C6.25905 12.4016 12.2994 5.90776 20.5718 5.96444C27.7281 6.01404 34.392 11.2219 34.9837 19.9193C35.0226 20.4826 34.9128 21.386 34.8526 21.9352C35.7879 21.7368 36.8117 21.3364 37.0349 21.0849C37.0491 20.8121 37.0562 20.5393 37.0562 20.2665C37.0562 11.1262 29.6306 4.0549 20.4903 4.0549C11.35 4.0549 3.95626 11.1227 3.95626 20.263C3.95626 20.5429 3.96335 20.8227 3.97752 21.0991C4.71441 21.758 5.61427 21.7332 6.25905 21.9352V21.9316Z" fill="white"/>
<path d="M21.7869 34.395C21.7869 34.395 30.534 34.4163 33.5807 25.2087C29.7935 34.0195 21.7869 34.395 21.7869 34.395Z" fill="white"/>
<path d="M4.84196 13.6522C4.84196 13.6522 8.70001 4.49066 16.7669 3.82108C9.35542 5.0327 4.84196 13.6522 4.84196 13.6522Z" fill="white"/>
<defs>
<linearGradient id="paint0_linear_3_122" x1="20.508" y1="2.62363" x2="20.508" y2="38.3912" gradientUnits="userSpaceOnUse">
<stop stop-color="#FFFBBF"/>
<stop offset="1" stop-color="#D47800"/>
</linearGradient>
<linearGradient id="paint1_linear_3_122" x1="20.5068" y1="3.41002" x2="20.5068" y2="37.6046" gradientUnits="userSpaceOnUse">
<stop stop-color="#F8FF94"/>
<stop offset="0.32" stop-color="#E9C300"/>
<stop offset="0.69" stop-color="#FFD215"/>
<stop offset="1" stop-color="#D4A000"/>
</linearGradient>
<linearGradient id="paint2_linear_3_122" x1="20.5085" y1="34.3951" x2="20.5085" y2="6.61997" gradientUnits="userSpaceOnUse">
<stop stop-color="#F8FF94"/>
<stop offset="0.5" stop-color="#E9C300"/>
<stop offset="1" stop-color="#D48000"/>
</linearGradient>
<linearGradient id="paint3_linear_3_122" x1="20.5115" y1="7.8673" x2="20.5115" y2="33.1484" gradientUnits="userSpaceOnUse">
<stop stop-color="#F8FF94"/>
<stop offset="0.32" stop-color="#E9CE00"/>
<stop offset="0.7" stop-color="#DDA400"/>
<stop offset="1" stop-color="#D48D00"/>
</linearGradient>
</defs>
</svg>
