<svg width="78" height="61" viewBox="0 0 78 61" fill="none" xmlns="http://www.w3.org/2000/svg">
<path d="M10.3868 61C6.92451 61 4.32231 60.1385 2.58015 58.4155C0.860051 56.7146 0 54.1633 0 50.7615V10.2716C0 6.84773 0.860051 4.28535 2.58015 2.58447C4.32231 0.861488 6.92451 0 10.3868 0H67.6132C71.0975 0 73.6997 0.861488 75.4198 2.58447C77.1399 4.30744 78 6.86982 78 10.2716V50.7615C78 54.1633 77.1399 56.7146 75.4198 58.4155C73.6997 60.1385 71.0975 61 67.6132 61H10.3868ZM26.6947 44.0353C26.6947 46.5314 27.8524 47.7795 30.1679 47.7795H47.8321C50.1696 47.7795 51.3384 46.5314 51.3384 44.0353V30.4503C51.3384 28.0867 50.335 26.8387 48.3282 26.7061V22.6969C48.3282 19.5381 47.4682 16.9978 45.7481 15.076C44.028 13.1543 41.7786 12.1934 39 12.1934C36.2214 12.1934 33.972 13.1543 32.2519 15.076C30.5318 16.9978 29.6718 19.5381 29.6718 22.6969V26.7061C27.687 26.8387 26.6947 28.0867 26.6947 30.4503V44.0353ZM33.2443 26.673V22.2993C33.2443 20.3112 33.7735 18.7098 34.8321 17.4948C35.8906 16.2578 37.2799 15.6393 39 15.6393C40.7422 15.6393 42.1315 16.2578 43.1679 17.4948C44.2265 18.7098 44.7557 20.3112 44.7557 22.2993V26.673H33.2443Z" fill="white"/>
</svg>
