<svg width="18" height="17" viewBox="0 0 18 17" fill="none" xmlns="http://www.w3.org/2000/svg">
<path d="M8.33089 0.748653C8.76681 0.152466 9.65668 0.152465 10.0926 0.748652L12.5836 4.15549C12.7183 4.33968 12.9073 4.47703 13.1241 4.54819L17.134 5.86451C17.8357 6.09487 18.1107 6.94119 17.6784 7.54L15.2081 10.9619C15.0745 11.1469 15.0023 11.3691 15.0016 11.5973L14.9888 15.8176C14.9866 16.5562 14.2667 17.0792 13.5636 16.8532L9.5458 15.5611C9.32858 15.4913 9.09492 15.4913 8.87769 15.5611L4.85994 16.8531C4.15684 17.0792 3.43691 16.5562 3.43468 15.8176L3.4219 11.5973C3.42121 11.3691 3.349 11.1469 3.21544 10.9619L0.745111 7.54C0.31281 6.94119 0.587796 6.09487 1.28951 5.86451L5.29937 4.54819C5.51617 4.47703 5.7052 4.33968 5.83988 4.15549L8.33089 0.748653Z" fill="#1B2635"/>
</svg>
