<svg width="18" height="17" viewBox="0 0 18 17" fill="none" xmlns="http://www.w3.org/2000/svg">
<path d="M8.44164 0.566249C8.87756 -0.0299378 9.76743 -0.0299386 10.2034 0.566249L12.6944 3.97308C12.829 4.15728 13.0181 4.29462 13.2349 4.36579L17.2447 5.68211C17.9464 5.91246 18.2214 6.75878 17.7891 7.3576L15.3188 10.7795C15.1852 10.9645 15.113 11.1867 15.1123 11.4149L15.0996 15.6352C15.0973 16.3738 14.3774 16.8968 13.6743 16.6707L9.65655 15.3787C9.43932 15.3089 9.20566 15.3089 8.98844 15.3787L4.97068 16.6707C4.26759 16.8968 3.54766 16.3738 3.54543 15.6352L3.53265 11.4149C3.53195 11.1867 3.45975 10.9645 3.32619 10.7795L0.855859 7.3576C0.423558 6.75878 0.698544 5.91246 1.40026 5.68211L5.41011 4.36579C5.62691 4.29462 5.81595 4.15728 5.95063 3.97308L8.44164 0.566249Z" fill="url(#paint0_linear_4_209)"/>
<defs>
<linearGradient id="paint0_linear_4_209" x1="9.4094" y1="4.56081" x2="9.4094" y2="14.9594" gradientUnits="userSpaceOnUse">
<stop stop-color="#FFFF01"/>
<stop offset="1" stop-color="#FFC822"/>
</linearGradient>
</defs>
</svg>
